<svg width="720" height="480" viewBox="0 0 720 480" xmlns="http://www.w3.org/2000/svg">

  <!-- Page background -->
  <rect x="0" y="0" width="720" height="480" fill="#1e1e2e"/>

  <!-- Title bar -->
  <rect x="0" y="0" width="720" height="40" fill="#12121e"/>
  <text x="360" y="15" font-family="Arial, sans-serif" font-size="11" font-weight="700" fill="#a0a0c0" text-anchor="middle" letter-spacing="3">LANDMARK CENTRE</text>
  <text x="360" y="31" font-family="Arial, sans-serif" font-size="9" fill="#6060a0" text-anchor="middle" letter-spacing="2">GROUND FLOOR PLAN — VICTORIA ISLAND, LAGOS</text>

  <!-- Building shell -->
  <rect x="30" y="52" width="660" height="390" rx="6" fill="#252535" stroke="#3a3a5a" stroke-width="2"/>

  <!-- MAIN HALL -->
  <rect x="44" y="66" width="240" height="230" rx="5" fill="#0d3d3d" stroke="#00c9a7" stroke-width="2"/>
  <line x1="44" y1="120" x2="284" y2="120" stroke="#00c9a7" stroke-width="0.3" opacity="0.3"/>
  <line x1="44" y1="174" x2="284" y2="174" stroke="#00c9a7" stroke-width="0.3" opacity="0.3"/>
  <line x1="44" y1="228" x2="284" y2="228" stroke="#00c9a7" stroke-width="0.3" opacity="0.3"/>
  <line x1="130" y1="66" x2="130" y2="296" stroke="#00c9a7" stroke-width="0.3" opacity="0.3"/>
  <line x1="204" y1="66" x2="204" y2="296" stroke="#00c9a7" stroke-width="0.3" opacity="0.3"/>
  <ellipse cx="164" cy="260" rx="90" ry="22" fill="#00c9a7" opacity="0.15"/>
  <ellipse cx="164" cy="260" rx="90" ry="22" fill="none" stroke="#00c9a7" stroke-width="1.2"/>
  <text x="164" y="265" font-family="Arial, sans-serif" font-size="9" font-weight="700" fill="#00c9a7" text-anchor="middle">STAGE</text>
  <path d="M 70 235 Q 164 220 258 235" fill="none" stroke="#00c9a7" stroke-width="1" opacity="0.4"/>
  <path d="M 65 220 Q 164 205 263 220" fill="none" stroke="#00c9a7" stroke-width="1" opacity="0.3"/>
  <path d="M 62 207 Q 164 192 266 207" fill="none" stroke="#00c9a7" stroke-width="1" opacity="0.2"/>
  <text x="164" y="92" font-family="Arial, sans-serif" font-size="14" font-weight="700" fill="#00c9a7" text-anchor="middle">MAIN HALL</text>
  <text x="164" y="110" font-family="Arial, sans-serif" font-size="10" fill="#80e8d4" text-anchor="middle">Track A — Keynote</text>
  <text x="164" y="126" font-family="Arial, sans-serif" font-size="9" fill="#506060" text-anchor="middle">800 seats</text>
  <rect x="84" y="69" width="160" height="10" rx="2" fill="#00c9a7" opacity="0.6"/>
  <text x="164" y="78" font-family="Arial, sans-serif" font-size="7" fill="#0d3d3d" text-anchor="middle" font-weight="700">SCREEN</text>

  <!-- INNOVATION HUB -->
  <rect x="302" y="66" width="230" height="230" rx="5" fill="#2d1b4e" stroke="#b46ef5" stroke-width="2"/>
  <line x1="302" y1="130" x2="532" y2="130" stroke="#b46ef5" stroke-width="0.3" opacity="0.3"/>
  <line x1="302" y1="194" x2="532" y2="194" stroke="#b46ef5" stroke-width="0.3" opacity="0.3"/>
  <line x1="302" y1="258" x2="532" y2="258" stroke="#b46ef5" stroke-width="0.3" opacity="0.3"/>
  <line x1="380" y1="66" x2="380" y2="296" stroke="#b46ef5" stroke-width="0.3" opacity="0.3"/>
  <line x1="460" y1="66" x2="460" y2="296" stroke="#b46ef5" stroke-width="0.3" opacity="0.3"/>
  <rect x="318" y="155" width="80" height="50" rx="4" fill="#b46ef5" opacity="0.18"/>
  <rect x="318" y="215" width="80" height="50" rx="4" fill="#b46ef5" opacity="0.18"/>
  <rect x="440" y="155" width="80" height="50" rx="4" fill="#b46ef5" opacity="0.18"/>
  <rect x="440" y="215" width="80" height="50" rx="4" fill="#b46ef5" opacity="0.18"/>
  <text x="358" y="184" font-family="Arial, sans-serif" font-size="8" fill="#d4a0ff" text-anchor="middle">Table A</text>
  <text x="480" y="184" font-family="Arial, sans-serif" font-size="8" fill="#d4a0ff" text-anchor="middle">Table B</text>
  <text x="358" y="244" font-family="Arial, sans-serif" font-size="8" fill="#d4a0ff" text-anchor="middle">Table C</text>
  <text x="480" y="244" font-family="Arial, sans-serif" font-size="8" fill="#d4a0ff" text-anchor="middle">Table D</text>
  <text x="417" y="92" font-family="Arial, sans-serif" font-size="14" font-weight="700" fill="#b46ef5" text-anchor="middle">INNOVATION HUB</text>
  <text x="417" y="110" font-family="Arial, sans-serif" font-size="10" fill="#d4a0ff" text-anchor="middle">Track B — Workshops</text>
  <text x="417" y="126" font-family="Arial, sans-serif" font-size="9" fill="#60407a" text-anchor="middle">300 seats</text>

  <!-- CORRIDOR -->
  <rect x="284" y="66" width="18" height="230" fill="#1a1a2e" stroke="#3a3a5a" stroke-width="0.5"/>
  <text x="293" y="183" font-family="Arial, sans-serif" font-size="7" fill="#5050a0" text-anchor="middle" transform="rotate(-90 293 183)">CORRIDOR</text>

  <!-- REGISTRATION -->
  <rect x="550" y="66" width="126" height="230" rx="5" fill="#3d2800" stroke="#f5a623" stroke-width="2"/>
  <rect x="564" y="130" width="98" height="35" rx="3" fill="#f5a623" opacity="0.2"/>
  <text x="613" y="152" font-family="Arial, sans-serif" font-size="9" fill="#f5c870" text-anchor="middle">CHECK-IN</text>
  <rect x="564" y="175" width="98" height="35" rx="3" fill="#f5a623" opacity="0.2"/>
  <text x="613" y="197" font-family="Arial, sans-serif" font-size="9" fill="#f5c870" text-anchor="middle">BADGE PICKUP</text>
  <rect x="564" y="220" width="98" height="35" rx="3" fill="#f5a623" opacity="0.2"/>
  <text x="613" y="242" font-family="Arial, sans-serif" font-size="9" fill="#f5c870" text-anchor="middle">INFO DESK</text>
  <text x="613" y="88" font-family="Arial, sans-serif" font-size="12" font-weight="700" fill="#f5a623" text-anchor="middle">REGISTRATION</text>
  <text x="613" y="104" font-family="Arial, sans-serif" font-size="9" fill="#c08020" text-anchor="middle">Entry Point</text>

  <!-- OUTDOOR LOUNGE -->
  <rect x="44" y="312" width="185" height="116" rx="5" fill="#3d1a0d" stroke="#ff6b47" stroke-width="2"/>
  <text x="136" y="360" font-family="Arial, sans-serif" font-size="12" font-weight="700" fill="#ff6b47" text-anchor="middle">OUTDOOR</text>
  <text x="136" y="376" font-family="Arial, sans-serif" font-size="12" font-weight="700" fill="#ff6b47" text-anchor="middle">LOUNGE</text>
  <text x="136" y="394" font-family="Arial, sans-serif" font-size="9" fill="#c05030" text-anchor="middle">After-Party &amp; Networking</text>
  <text x="136" y="410" font-family="Arial, sans-serif" font-size="9" fill="#804030" text-anchor="middle">400 standing</text>

  <!-- CATERING -->
  <rect x="245" y="312" width="180" height="116" rx="5" fill="#0d3320" stroke="#3ddc84" stroke-width="2"/>
  <text x="335" y="360" font-family="Arial, sans-serif" font-size="12" font-weight="700" fill="#3ddc84" text-anchor="middle">CATERING</text>
  <text x="335" y="378" font-family="Arial, sans-serif" font-size="9" fill="#2ab060" text-anchor="middle">Meals &amp; Refreshments</text>
  <rect x="265" y="395" width="140" height="16" rx="3" fill="#3ddc84" opacity="0.2"/>
  <text x="335" y="407" font-family="Arial, sans-serif" font-size="8" fill="#3ddc84" text-anchor="middle">SERVING COUNTER</text>

  <!-- AMENITIES -->
  <rect x="441" y="312" width="235" height="116" rx="5" fill="#0d1e3d" stroke="#4da6ff" stroke-width="2"/>
  <text x="558" y="345" font-family="Arial, sans-serif" font-size="12" font-weight="700" fill="#4da6ff" text-anchor="middle">AMENITIES</text>
  <line x1="558" y1="355" x2="558" y2="420" stroke="#4da6ff" stroke-width="0.8" opacity="0.4"/>
  <text x="500" y="372" font-family="Arial, sans-serif" font-size="9" fill="#80c4ff" text-anchor="middle">Restrooms</text>
  <text x="500" y="386" font-family="Arial, sans-serif" font-size="9" fill="#80c4ff" text-anchor="middle">Prayer Room</text>
  <text x="618" y="372" font-family="Arial, sans-serif" font-size="9" fill="#80c4ff" text-anchor="middle">First Aid</text>
  <text x="618" y="386" font-family="Arial, sans-serif" font-size="9" fill="#80c4ff" text-anchor="middle">Nursing Room</text>
  <text x="558" y="410" font-family="Arial, sans-serif" font-size="9" fill="#305080" text-anchor="middle">Level 2: VIP Lounge</text>

  <!-- ENTRANCE -->
  <rect x="300" y="437" width="120" height="22" rx="4" fill="#f5a623"/>
  <text x="360" y="452" font-family="Arial, sans-serif" font-size="10" font-weight="700" fill="#1e1e2e" text-anchor="middle">MAIN ENTRANCE</text>

  <!-- LEGEND -->
  <rect x="44" y="462" width="10" height="10" rx="2" fill="#00c9a7"/>
  <text x="58" y="471" font-family="Arial, sans-serif" font-size="8" fill="#a0a0c0">Main Hall</text>
  <rect x="120" y="462" width="10" height="10" rx="2" fill="#b46ef5"/>
  <text x="134" y="471" font-family="Arial, sans-serif" font-size="8" fill="#a0a0c0">Innovation Hub</text>
  <rect x="228" y="462" width="10" height="10" rx="2" fill="#f5a623"/>
  <text x="242" y="471" font-family="Arial, sans-serif" font-size="8" fill="#a0a0c0">Registration</text>
  <rect x="308" y="462" width="10" height="10" rx="2" fill="#ff6b47"/>
  <text x="322" y="471" font-family="Arial, sans-serif" font-size="8" fill="#a0a0c0">Outdoor Lounge</text>
  <rect x="412" y="462" width="10" height="10" rx="2" fill="#3ddc84"/>
  <text x="426" y="471" font-family="Arial, sans-serif" font-size="8" fill="#a0a0c0">Catering</text>
  <rect x="480" y="462" width="10" height="10" rx="2" fill="#4da6ff"/>
  <text x="494" y="471" font-family="Arial, sans-serif" font-size="8" fill="#a0a0c0">Amenities</text>

</svg>
